<svg width="12" height="19" viewBox="0 0 12 19" fill="none" xmlns="http://www.w3.org/2000/svg">
<path d="M6 13.75C2.685 13.75 0 15.0925 0 16.75V18.25H12V16.75C12 15.0925 9.315 13.75 6 13.75ZM3 9.25C3 10.0456 3.31607 10.8087 3.87868 11.3713C4.44129 11.9339 5.20435 12.25 6 12.25C6.79565 12.25 7.55871 11.9339 8.12132 11.3713C8.68393 10.8087 9 10.0456 9 9.25M5.625 4C5.4 4 5.25 4.1575 5.25 4.375V6.625H4.5V4.75C4.5 4.75 2.8125 5.395 2.8125 7.5625C2.8125 7.5625 2.25 7.6675 2.25 8.5H9.75C9.7125 7.6675 9.1875 7.5625 9.1875 7.5625C9.1875 5.395 7.5 4.75 7.5 4.75V6.625H6.75V4.375C6.75 4.1575 6.6075 4 6.375 4H5.625Z" fill="#646464"/>
</svg>
