<svg width="16" height="19" viewBox="0 0 16 19" fill="none" xmlns="http://www.w3.org/2000/svg">
<path d="M16 16.6111V4.16664C16 3.1862 15.2027 2.38886 14.2222 2.38886H12.4444V0.611084H10.6667V2.38886H5.33333V0.611084H3.55556V2.38886H1.77778C0.797333 2.38886 0 3.1862 0 4.16664V16.6111C0 17.5915 0.797333 18.3889 1.77778 18.3889H14.2222C15.2027 18.3889 16 17.5915 16 16.6111ZM5.33333 14.8333H3.55556V13.0555H5.33333V14.8333ZM5.33333 11.2778H3.55556V9.49997H5.33333V11.2778ZM8.88889 14.8333H7.11111V13.0555H8.88889V14.8333ZM8.88889 11.2778H7.11111V9.49997H8.88889V11.2778ZM12.4444 14.8333H10.6667V13.0555H12.4444V14.8333ZM12.4444 11.2778H10.6667V9.49997H12.4444V11.2778ZM14.2222 6.83331H1.77778V5.05553H14.2222V6.83331Z" fill="#646464"/>
</svg>
