<svg width="16" height="18" viewBox="0 0 16 18" fill="none" xmlns="http://www.w3.org/2000/svg">
<path d="M12.4444 4H3.11111V7.11111H12.4444M13.2222 11C13.0159 11 12.8181 10.9181 12.6722 10.7722C12.5264 10.6263 12.4444 10.4285 12.4444 10.2222C12.4444 10.0159 12.5264 9.81811 12.6722 9.67225C12.8181 9.52639 13.0159 9.44444 13.2222 9.44444C13.4285 9.44444 13.6263 9.52639 13.7722 9.67225C13.9181 9.81811 14 10.0159 14 10.2222C14 10.4285 13.9181 10.6263 13.7722 10.7722C13.6263 10.9181 13.4285 11 13.2222 11ZM10.8889 16.4444H4.66667V12.5556H10.8889M13.2222 7.88889H2.33333C1.71449 7.88889 1.121 8.13472 0.683418 8.57231C0.245833 9.00989 0 9.60338 0 10.2222V14.8889H3.11111V18H12.4444V14.8889H15.5556V10.2222C15.5556 9.60338 15.3097 9.00989 14.8721 8.57231C14.4346 8.13472 13.8411 7.88889 13.2222 7.88889Z" fill="#646464"/>
</svg>
